<svg width="48" height="48" viewBox="0 0 48 48" fill="none" xmlns="http://www.w3.org/2000/svg">
<path d="M29.6761 28.9782C29.9412 29.2164 30.2535 29.3999 30.5938 29.5174C30.9342 29.635 31.2957 29.6843 31.6563 29.6623C32.2278 29.6764 32.7882 29.5077 33.2511 29.1824C33.6282 28.9449 33.9136 28.5923 34.0626 28.182H36.7553C36.4685 29.3518 35.7682 30.3872 34.7761 31.1082C33.8239 31.7212 32.6987 32.0319 31.5563 31.9974C30.7411 32.0077 29.932 31.8589 29.1772 31.5599C28.4941 31.2838 27.8815 30.8662 27.3824 30.3363C26.8853 29.7811 26.5033 29.1382 26.2574 28.4427C25.9816 27.6651 25.8467 26.847 25.8584 26.0248C25.8532 25.2164 25.9928 24.4131 26.2709 23.6513C26.646 22.58 27.3605 21.651 28.3123 20.997C29.2641 20.3431 30.4046 19.9975 31.5709 20.0097C32.4323 19.9924 33.2841 20.1881 34.0459 20.5786C34.7345 20.9443 35.3282 21.4576 35.7834 22.0791C36.2485 22.7307 36.5818 23.4621 36.7657 24.2343C36.9678 25.0639 37.0397 25.9177 36.9793 26.7684H28.9595C28.8938 27.5667 29.1511 28.3589 29.6761 28.9782ZM19.2365 16.0013C19.9118 15.9895 20.5861 16.0566 21.2448 16.2014C21.7997 16.3187 22.3265 16.5375 22.7969 16.8461C23.2323 17.1522 23.5761 17.5645 23.7948 18.0404C24.0459 18.6254 24.1667 19.2559 24.1501 19.8895C24.1791 20.5859 23.9958 21.2751 23.623 21.8709C23.2315 22.4333 22.6905 22.8826 22.0573 23.1713C22.917 23.3959 23.6657 23.9108 24.1688 24.6233C24.6521 25.3781 24.8949 26.2551 24.8667 27.1433C24.8833 27.8514 24.7326 28.5537 24.4261 29.1965C24.1432 29.7579 23.7282 30.247 23.2146 30.6242C22.6868 30.9981 22.0925 31.2745 21.4615 31.4396C20.8075 31.6154 20.1318 31.7035 19.4532 31.7013H12V16.0013H19.2365ZM18.9917 29.0358C19.3125 29.0399 19.6334 29.0065 19.9459 28.9358C20.2316 28.8749 20.5026 28.761 20.7438 28.6003C20.9813 28.4407 21.1719 28.2255 21.3 27.9749C21.448 27.6546 21.5167 27.305 21.499 26.9554C21.5312 26.6362 21.4877 26.3141 21.3718 26.0137C21.2559 25.7133 21.0706 25.4427 20.8302 25.2225C20.3203 24.8587 19.6957 24.6783 19.0636 24.7122H15.3761V29.0358H18.9917ZM33.1949 23.0066C32.9705 22.7889 32.7006 22.6204 32.4034 22.5125C32.1062 22.4046 31.7886 22.3598 31.472 22.3812C31.0516 22.3654 30.6342 22.4555 30.2605 22.6429C29.9644 22.8008 29.7032 23.0136 29.4917 23.2693C29.3034 23.5084 29.1634 23.78 29.0792 24.0696C29.0022 24.3111 28.9542 24.5597 28.9365 24.8112H33.9043C33.8607 24.1548 33.6143 23.5262 33.197 23.0076L33.1949 23.0066ZM18.8063 22.3519C19.3372 22.3729 19.8598 22.2187 20.2886 21.9144C20.7042 21.5557 20.9209 21.0252 20.8719 20.4866C20.8854 20.1764 20.8218 19.8677 20.6865 19.5863C20.5711 19.3628 20.3922 19.176 20.1709 19.0478C19.9465 18.9067 19.6942 18.8124 19.4302 18.7709C19.1438 18.7166 18.8523 18.6919 18.5604 18.6972H15.3761V22.366H18.8063V22.3519ZM34.5209 17.0502H28.2959V18.5931H34.5209V17.0502Z" fill="black"/>
</svg>
