<svg width="48" height="48" viewBox="0 0 48 48" fill="none" xmlns="http://www.w3.org/2000/svg">
<path fill-rule="evenodd" clip-rule="evenodd" d="M20.4965 16.3752C20.8771 15.9934 21.0881 15.4812 21.0838 14.9492C21.064 14.4332 20.8424 13.944 20.4643 13.5817C20.0862 13.2194 19.5802 13.0113 19.0497 13C18.5177 13.0111 18.0099 13.2186 17.6293 13.5806C17.2487 13.9425 17.0237 14.4318 17 14.9492C17.0077 15.4803 17.2246 15.9881 17.6061 16.3679C17.9876 16.7477 18.5044 16.9703 19.0497 16.9898C19.5962 16.9778 20.1159 16.757 20.4965 16.3752ZM18.6688 19.6188C17.8075 19.5998 17.2191 19.5868 17.2191 20.6141V32.0352C17.2191 33.0412 17.7802 33.0204 18.5888 32.9905C18.735 32.9851 18.8892 32.9794 19.0497 32.9794C19.2105 32.9794 19.3646 32.9851 19.5104 32.9905C20.3152 33.0204 20.8648 33.0408 20.8648 32.0352V20.6141C20.8648 19.587 20.2885 19.5998 19.4305 19.6188C19.309 19.6214 19.1818 19.6243 19.0497 19.6243C18.9179 19.6243 18.7906 19.6215 18.6688 19.6188ZM24.6669 19.6395C24.2757 19.7156 24.0254 19.9593 24.0254 20.6141V32.0352C24.0254 33.0402 24.5631 33.0205 25.3732 32.9905C25.5205 32.9851 25.6767 32.9794 25.8404 32.9794C26.0038 32.9794 26.1602 32.9851 26.3078 32.9905C27.1218 33.0205 27.6711 33.0407 27.6711 32.0352V25.944C27.64 25.6327 27.6771 25.3186 27.7801 25.0223C27.8831 24.7261 28.0496 24.4545 28.2685 24.2256C28.4874 23.9967 28.7538 23.8157 29.0501 23.6945C29.3463 23.5733 29.6656 23.5147 29.9868 23.5227C30.3095 23.5041 30.6326 23.5533 30.9341 23.6669C31.2356 23.7806 31.5083 23.956 31.734 24.1814C31.9596 24.4067 32.1327 24.6767 32.2417 24.973C32.3505 25.2692 32.3926 25.5848 32.3652 25.8983V31.9895C32.3652 32.9947 32.9029 32.9748 33.713 32.9449C33.8603 32.9395 34.0165 32.9336 34.1801 32.9336C34.3438 32.9336 34.5001 32.9395 34.6474 32.9449C35.4574 32.9748 35.9952 32.9947 35.9952 31.9895V24.1927C36.025 23.5526 35.916 22.9135 35.6753 22.317C35.4348 21.7205 35.068 21.1799 34.5988 20.7304C34.1294 20.2808 33.5683 19.9324 32.9517 19.7078C32.3351 19.4831 31.6767 19.3872 31.0196 19.4263C30.3502 19.3671 29.6766 19.476 29.0629 19.7426C28.4492 20.0092 27.9161 20.4247 27.5146 20.9491C27.5303 20.3857 27.3425 19.6395 26.8731 19.6395C26.7385 19.6395 26.5319 19.6332 26.2963 19.6261C25.7105 19.6083 24.9459 19.5852 24.6669 19.6395Z" fill="black"/>
</svg>
